<svg width="510" height="359" xmlns="http://www.w3.org/2000/svg" xmlns:xlink="http://www.w3.org/1999/xlink" overflow="hidden"><defs><clipPath id="clip0"><rect x="0" y="0" width="510" height="359"/></clipPath></defs><g clip-path="url(#clip0)"><rect x="0" y="0" width="510" height="359.117" fill="#FFFFFF"/><text font-family="Times New Roman,Times New Roman_MSFontService,sans-serif" font-weight="400" font-size="16" transform="matrix(1 0 0 1.00033 388.807 25)">Linear spring</text><path d="M97 44.0144 177.478 44.0145" stroke="#000000" stroke-width="1.99935" stroke-miterlimit="8" fill="none" fill-rule="evenodd"/><path d="M0 0 14.2237 27.8258" stroke="#000000" stroke-width="1.99935" stroke-miterlimit="8" fill="none" fill-rule="evenodd" transform="matrix(1 0 0 -1.00033 176 43.8401)"/><path d="M0 0 0.000104953 55.9241" stroke="#000000" stroke-width="1.99935" stroke-miterlimit="8" fill="none" fill-rule="evenodd" transform="matrix(1 0 0 -1.00033 191 71.9476)"/><path d="M291 44.0144 382.435 44.0145" stroke="#000000" stroke-width="1.99935" stroke-miterlimit="8" fill="none" fill-rule="evenodd"/><path d="M97 141.046 259.467 141.046" stroke="#000000" stroke-width="1.99935" stroke-miterlimit="8" fill="none" fill-rule="evenodd"/><path d="M223 122.04 381.688 122.04" stroke="#000000" stroke-width="1.99935" stroke-miterlimit="8" fill="none" fill-rule="evenodd"/><path d="M0 0 0.000104953 259.191" stroke="#000000" stroke-width="1.99935" stroke-miterlimit="8" fill="none" fill-rule="evenodd" transform="matrix(-1 0 0 1.00033 97 43.0141)"/><path d="M0 0 0.000104953 258.057" stroke="#000000" stroke-width="1.99935" stroke-miterlimit="8" fill="none" fill-rule="evenodd" transform="matrix(-1 0 0 1.00033 382 43.0141)"/><path d="M19.3316 169.056 96.6068 169.056 96.6068 171.056 19.3316 171.056ZM19.3316 170.056 21.9974 174.056 14 170.056 21.9974 166.056Z"/><path d="M382 168.055 459.275 168.055 459.275 170.055 382 170.055ZM459.275 169.055 456.609 165.055 464.607 169.055 456.609 173.055Z"/><text font-family="Cambria Math,Cambria Math_MSFontService,sans-serif" font-weight="400" font-size="16" transform="matrix(1 0 0 1.00033 150.659 89)">ğ¾</text><text font-family="Cambria Math,Cambria Math_MSFontService,sans-serif" font-weight="400" font-size="12" transform="matrix(1 0 0 1.00033 160.543 92)">ğ¼</text><text font-family="Cambria Math,Cambria Math_MSFontService,sans-serif" font-weight="400" font-size="16" transform="matrix(1 0 0 1.00033 169.633 89)">â‹…</text><text font-family="Cambria Math,Cambria Math_MSFontService,sans-serif" font-weight="400" font-size="16" transform="matrix(1 0 0 1.00033 177.684 89)">ğ¾</text><text font-family="Cambria Math,Cambria Math_MSFontService,sans-serif" font-weight="400" font-size="12" transform="matrix(1 0 0 1.00033 187.567 92)">ğ¿</text><text font-family="Cambria Math,Cambria Math_MSFontService,sans-serif" font-weight="400" font-size="16" transform="matrix(1 0 0 1.00033 198.431 89)">â‹…</text><text font-family="Cambria Math,Cambria Math_MSFontService,sans-serif" font-weight="400" font-size="16" transform="matrix(1 0 0 1.00033 206.481 89)">ğ›¼</text><text font-family="Cambria Math,Cambria Math_MSFontService,sans-serif" font-weight="400" font-size="12" transform="matrix(1 0 0 1.00033 216.944 83)">âˆ—</text><text font-family="Cambria Math,Cambria Math_MSFontService,sans-serif" font-weight="400" font-size="16" transform="matrix(1 0 0 1.00033 226.828 89)">â‹…</text><text font-family="Cambria Math,Cambria Math_MSFontService,sans-serif" font-weight="400" font-size="16" transform="matrix(1 0 0 1.00033 234.879 89)">ğ¹</text><text font-family="Cambria Math,Cambria Math_MSFontService,sans-serif" font-weight="400" font-size="12" transform="matrix(1 0 0 1.00033 241.583 92)">ğ‘¦</text><text font-family="Cambria Math,Cambria Math_MSFontService,sans-serif" font-weight="400" font-size="16" transform="matrix(1 0 0 1.00033 249.867 89)">/</text><text font-family="Cambria Math,Cambria Math_MSFontService,sans-serif" font-weight="400" font-size="16" transform="matrix(1 0 0 1.00033 257.698 89)">ğ‘‘</text><text font-family="Cambria Math,Cambria Math_MSFontService,sans-serif" font-weight="400" font-size="12" transform="matrix(1 0 0 1.00033 267.028 92)">ğ‘¦</text><text font-family="Cambria Math,Cambria Math_MSFontService,sans-serif" font-weight="400" font-size="16" transform="matrix(1 0 0 1.00033 278.864 89)">â‹…</text><text font-family="Cambria Math,Cambria Math_MSFontService,sans-serif" font-weight="400" font-size="16" transform="matrix(1 0 0 1.00033 286.915 89)">ğ‘¥</text><path d="M193.451 3.0176C194.972 3.41865 196.14 4.28453 196.955 5.61526 197.77 6.94599 198.178 8.55146 198.178 10.4317 198.178 12.3171 197.772 13.9226 196.959 15.2481 196.147 16.5736 194.977 17.4369 193.451 17.8379L193.264 17.2364C194.467 16.8353 195.362 16.0436 195.948 14.8614 196.533 13.6791 196.826 12.1765 196.826 10.3535 196.826 8.59313 196.535 7.13089 195.951 5.96682 195.368 4.80276 194.464 4.02021 193.24 3.61917ZM185.714 3.0176 185.925 3.61917C184.706 4.02021 183.804 4.80276 183.218 5.96682 182.632 7.13089 182.339 8.59313 182.339 10.3535 182.339 12.1765 182.632 13.6791 183.218 14.8614 183.804 16.0436 184.698 16.8353 185.902 17.2364L185.714 17.8379C184.188 17.4369 183.019 16.5736 182.206 15.2481 181.394 13.9226 180.988 12.3171 180.988 10.4317 180.988 8.55146 181.395 6.94599 182.21 5.61526 183.025 4.28453 184.193 3.41865 185.714 3.0176Z" fill-rule="evenodd" transform="matrix(1 0 0 1.00033 116.317 74.2182)"/><text font-family="Cambria Math,Cambria Math_MSFontService,sans-serif" font-weight="400" font-size="16" transform="matrix(1 0 0 1.00033 302.537 89)">ğ‘¡</text><path d="M135.717 3.0176C137.238 3.41865 138.406 4.28453 139.221 5.61526 140.036 6.94599 140.444 8.55146 140.444 10.4317 140.444 12.3171 140.037 13.9226 139.225 15.2481 138.412 16.5736 137.243 17.4369 135.717 17.8379L135.529 17.2364C136.733 16.8353 137.627 16.0436 138.213 14.8614 138.799 13.6791 139.092 12.1765 139.092 10.3535 139.092 8.59313 138.8 7.13089 138.217 5.96682 137.634 4.80276 136.73 4.02021 135.506 3.61917ZM61.1815 3.0176 61.3924 3.61917C60.1737 4.02021 59.2713 4.80276 58.6854 5.96682 58.0995 7.13089 57.8065 8.59313 57.8065 10.3535 57.8065 12.1765 58.0995 13.6791 58.6854 14.8614 59.2713 16.0436 60.1659 16.8353 61.369 17.2364L61.1815 17.8379C59.6554 17.4369 58.4862 16.5736 57.6737 15.2481 56.8612 13.9226 56.4549 12.3171 56.4549 10.4317 56.4549 8.55146 56.8625 6.94599 57.6776 5.61526 58.4927 4.28453 59.6607 3.41865 61.1815 3.0176Z" fill-rule="evenodd" transform="matrix(1 0 0 1.00033 68.3666 157.616)"/><text font-family="Cambria Math,Cambria Math_MSFontService,sans-serif" font-weight="400" font-size="16" transform="matrix(1 0 0 1.00033 130.053 173)">1</text><text font-family="Cambria Math,Cambria Math_MSFontService,sans-serif" font-weight="400" font-size="16" transform="matrix(1 0 0 1.00033 142.436 173)">âˆ’</text><text font-family="Cambria Math,Cambria Math_MSFontService,sans-serif" font-weight="400" font-size="16" transform="matrix(1 0 0 1.00033 157.984 173)">ğ¾</text><text font-family="Cambria Math,Cambria Math_MSFontService,sans-serif" font-weight="400" font-size="12" transform="matrix(1 0 0 1.00033 167.867 176)">ğ¿</text><text font-family="Cambria Math,Cambria Math_MSFontService,sans-serif" font-weight="400" font-size="16" transform="matrix(1 0 0 1.00033 178.731 173)">â‹…</text><text font-family="Cambria Math,Cambria Math_MSFontService,sans-serif" font-weight="400" font-size="16" transform="matrix(1 0 0 1.00033 186.781 173)">ğ›¼</text><text font-family="Cambria Math,Cambria Math_MSFontService,sans-serif" font-weight="400" font-size="12" transform="matrix(1 0 0 1.00033 197.244 167)">âˆ—</text><text font-family="Cambria Math,Cambria Math_MSFontService,sans-serif" font-weight="400" font-size="16" transform="matrix(1 0 0 1.00033 213.766 173)">â‹…</text><text font-family="Cambria Math,Cambria Math_MSFontService,sans-serif" font-weight="400" font-size="16" transform="matrix(1 0 0 1.00033 221.816 173)">ğ¾</text><text font-family="Cambria Math,Cambria Math_MSFontService,sans-serif" font-weight="400" font-size="12" transform="matrix(1 0 0 1.00033 231.7 176)">ğ¼</text><text font-family="Cambria Math,Cambria Math_MSFontService,sans-serif" font-weight="400" font-size="16" transform="matrix(1 0 0 1.00033 240.79 173)">â‹…</text><text font-family="Cambria Math,Cambria Math_MSFontService,sans-serif" font-weight="400" font-size="16" transform="matrix(1 0 0 1.00033 248.841 173)">ğ¾</text><text font-family="Cambria Math,Cambria Math_MSFontService,sans-serif" font-weight="400" font-size="12" transform="matrix(1 0 0 1.00033 259.291 176)">ğ‘‡1</text><text font-family="Cambria Math,Cambria Math_MSFontService,sans-serif" font-weight="400" font-size="16" transform="matrix(1 0 0 1.00033 277.505 173)">â‹…</text><text font-family="Cambria Math,Cambria Math_MSFontService,sans-serif" font-weight="400" font-size="16" transform="matrix(1 0 0 1.00033 285.556 173)">ğ¹</text><text font-family="Cambria Math,Cambria Math_MSFontService,sans-serif" font-weight="400" font-size="12" transform="matrix(1 0 0 1.00033 292.26 176)">ğ‘¦</text><text font-family="Cambria Math,Cambria Math_MSFontService,sans-serif" font-weight="400" font-size="16" transform="matrix(1 0 0 1.00033 304.096 173)">â‹…</text><text font-family="Cambria Math,Cambria Math_MSFontService,sans-serif" font-weight="400" font-size="16" transform="matrix(1 0 0 1.00033 312.147 173)">ğ‘§</text><text font-family="Cambria Math,Cambria Math_MSFontService,sans-serif" font-weight="400" font-size="12" transform="matrix(1 0 0 1.00033 319.045 176)">1</text><path d="M272.046 3.0176C273.567 3.41865 274.735 4.28453 275.55 5.61526 276.365 6.94599 276.772 8.55146 276.772 10.4317 276.772 12.3171 276.366 13.9226 275.554 15.2481 274.741 16.5736 273.572 17.4369 272.046 17.8379L271.858 17.2364C273.061 16.8353 273.956 16.0436 274.542 14.8614 275.128 13.6791 275.421 12.1765 275.421 10.3535 275.421 8.59313 275.129 7.13089 274.546 5.96682 273.962 4.80276 273.059 4.02021 271.835 3.61917ZM264.308 3.0176 264.519 3.61917C263.301 4.02021 262.398 4.80276 261.812 5.96682 261.226 7.13089 260.933 8.59313 260.933 10.3535 260.933 12.1765 261.226 13.6791 261.812 14.8614 262.398 16.0436 263.293 16.8353 264.496 17.2364L264.308 17.8379C262.782 17.4369 261.613 16.5736 260.801 15.2481 259.988 13.9226 259.582 12.3171 259.582 10.4317 259.582 8.55146 259.989 6.94599 260.805 5.61526 261.62 4.28453 262.788 3.41865 264.308 3.0176Z" fill-rule="evenodd" transform="matrix(1 0 0 1.00033 68.3666 157.616)"/><text font-family="Cambria Math,Cambria Math_MSFontService,sans-serif" font-weight="400" font-size="16" transform="matrix(1 0 0 1.00033 333.18 173)">ğ‘¡</text><path d="M0 0 14.2237 27.8258" stroke="#000000" stroke-width="1.99935" stroke-miterlimit="8" fill="none" fill-rule="evenodd" transform="matrix(1 0 0 -1.00033 191 70.8489)"/><path d="M0 0 14.2237 27.8258" stroke="#000000" stroke-width="1.99935" stroke-miterlimit="8" fill="none" fill-rule="evenodd" transform="matrix(1 0 0 -1.00033 205 43.8401)"/><path d="M0 0 0.000104953 55.9241" stroke="#000000" stroke-width="1.99935" stroke-miterlimit="8" fill="none" fill-rule="evenodd" transform="matrix(1 0 0 -1.00033 219 70.9473)"/><path d="M0 0 14.2237 27.8258" stroke="#000000" stroke-width="1.99935" stroke-miterlimit="8" fill="none" fill-rule="evenodd" transform="matrix(1 0 0 -1.00033 219 70.8489)"/><path d="M0 0 14.2237 27.8258" stroke="#000000" stroke-width="1.99935" stroke-miterlimit="8" fill="none" fill-rule="evenodd" transform="matrix(1 0 0 -1.00033 233 42.8398)"/><path d="M0 0 0.000104953 55.9241" stroke="#000000" stroke-width="1.99935" stroke-miterlimit="8" fill="none" fill-rule="evenodd" transform="matrix(1 0 0 -1.00033 248 69.947)"/><path d="M0 0 14.2237 27.8258" stroke="#000000" stroke-width="1.99935" stroke-miterlimit="8" fill="none" fill-rule="evenodd" transform="matrix(1 0 0 -1.00033 248 69.8486)"/><path d="M0 0 14.2237 27.8258" stroke="#000000" stroke-width="1.99935" stroke-miterlimit="8" fill="none" fill-rule="evenodd" transform="matrix(1 0 0 -1.00033 262 41.8395)"/><path d="M0 0 0.000104953 55.9241" stroke="#000000" stroke-width="1.99935" stroke-miterlimit="8" fill="none" fill-rule="evenodd" transform="matrix(1 0 0 -1.00033 276 69.947)"/><path d="M0 0 15.6258 26.0428" stroke="#000000" stroke-width="1.99935" stroke-miterlimit="8" fill="none" fill-rule="evenodd" transform="matrix(1 0 0 -1.00033 276 69.0654)"/><text font-family="Cambria Math,Cambria Math_MSFontService,sans-serif" font-weight="400" font-size="16" transform="matrix(1 0 0 1.00033 179.481 254)">ğ¾</text><text font-family="Cambria Math,Cambria Math_MSFontService,sans-serif" font-weight="400" font-size="12" transform="matrix(1 0 0 1.00033 189.364 257)">ğ¿</text><text font-family="Cambria Math,Cambria Math_MSFontService,sans-serif" font-weight="400" font-size="16" transform="matrix(1 0 0 1.00033 200.228 254)">â‹…</text><text font-family="Cambria Math,Cambria Math_MSFontService,sans-serif" font-weight="400" font-size="16" transform="matrix(1 0 0 1.00033 208.278 254)">ğ›¼</text><text font-family="Cambria Math,Cambria Math_MSFontService,sans-serif" font-weight="400" font-size="12" transform="matrix(1 0 0 1.00033 218.742 248)">âˆ—</text><text font-family="Cambria Math,Cambria Math_MSFontService,sans-serif" font-weight="400" font-size="16" transform="matrix(1 0 0 1.00033 228.625 254)">â‹…</text><text font-family="Cambria Math,Cambria Math_MSFontService,sans-serif" font-weight="400" font-size="16" transform="matrix(1 0 0 1.00033 236.676 254)">ğ¹</text><text font-family="Cambria Math,Cambria Math_MSFontService,sans-serif" font-weight="400" font-size="12" transform="matrix(1 0 0 1.00033 243.38 257)">ğ‘¦</text><text font-family="Cambria Math,Cambria Math_MSFontService,sans-serif" font-weight="400" font-size="16" transform="matrix(1 0 0 1.00033 255.216 254)">â‹…</text><text font-family="Cambria Math,Cambria Math_MSFontService,sans-serif" font-weight="400" font-size="16" transform="matrix(1 0 0 1.00033 263.267 254)">ğ‘§</text><text font-family="Cambria Math,Cambria Math_MSFontService,sans-serif" font-weight="400" font-size="12" transform="matrix(1 0 0 1.00033 270.538 257)">2</text><path d="M218.09 3.0176C219.611 3.41865 220.779 4.28453 221.594 5.61526 222.409 6.94599 222.817 8.55146 222.817 10.4317 222.817 12.3171 222.41 13.9226 221.598 15.2481 220.785 16.5736 219.616 17.4369 218.09 17.8379L217.903 17.2364C219.106 16.8353 220 16.0436 220.586 14.8614 221.172 13.6791 221.465 12.1765 221.465 10.3535 221.465 8.59313 221.173 7.13089 220.59 5.96682 220.007 4.80276 219.103 4.02021 217.879 3.61917ZM210.353 3.0176 210.564 3.61917C209.345 4.02021 208.443 4.80276 207.857 5.96682 207.271 7.13089 206.978 8.59313 206.978 10.3535 206.978 12.1765 207.271 13.6791 207.857 14.8614 208.443 16.0436 209.337 16.8353 210.54 17.2364L210.353 17.8379C208.827 17.4369 207.657 16.5736 206.845 15.2481 206.032 13.9226 205.626 12.3171 205.626 10.4317 205.626 8.55146 206.034 6.94599 206.849 5.61526 207.664 4.28453 208.832 3.41865 210.353 3.0176Z" fill-rule="evenodd" transform="matrix(1 0 0 1.00033 73.8156 238.648)"/><text font-family="Cambria Math,Cambria Math_MSFontService,sans-serif" font-weight="400" font-size="16" transform="matrix(1 0 0 1.00033 284.673 254)">ğ‘¡</text><text font-family="Times New Roman,Times New Roman_MSFontService,sans-serif" font-weight="400" font-size="16" transform="matrix(1 0 0 1.00033 397.848 94)">Basic hysteretic</text><text font-family="Times New Roman,Times New Roman_MSFontService,sans-serif" font-weight="400" font-size="16" transform="matrix(1 0 0 1.00033 397.848 114)">spring</text><text font-family="Times New Roman,Times New Roman_MSFontService,sans-serif" font-weight="400" font-size="16" transform="matrix(1 0 0 1.00033 394.596 247)">Added hysteretic</text><text font-family="Times New Roman,Times New Roman_MSFontService,sans-serif" font-weight="400" font-size="16" transform="matrix(1 0 0 1.00033 394.596 267)">spring</text><text font-family="Cambria Math,Cambria Math_MSFontService,sans-serif" font-weight="400" font-size="16" transform="matrix(1 0 0 1.00033 12.6051 190)">ğ¹</text><text font-family="Cambria Math,Cambria Math_MSFontService,sans-serif" font-weight="400" font-size="16" transform="matrix(1 0 0 1.00033 452.792 190)">ğ¹</text><path d="M146 21.5072C146 15.7062 150.701 11.0036 156.5 11.0036L311.5 11.0036C317.299 11.0036 322 15.7062 322 21.5072L322 63.5206C322 69.3215 317.299 74.0241 311.5 74.0241L156.5 74.0241C150.701 74.0241 146 69.3215 146 63.5206Z" stroke="#042433" stroke-width="1.99935" stroke-miterlimit="8" stroke-dasharray="7.99739 5.99804" fill="none" fill-rule="evenodd"/><path d="M5.41597-0.30365 58.8015 6.64009 58.5436 8.62274 5.1581 1.679ZM5.28706 0.687676 7.41483 4.99681 0 0 8.44634-2.93378Z" transform="matrix(1 0 0 -1.00033 325 27.6404)"/><path d="M146 111.87C146 106.99 149.955 103.034 154.833 103.034L313.167 103.034C318.045 103.034 322 106.99 322 111.87L322 147.215C322 152.095 318.045 156.051 313.167 156.051L154.833 156.051C149.955 156.051 146 152.095 146 147.215Z" stroke="#042433" stroke-width="1.99935" stroke-miterlimit="8" stroke-dasharray="7.99739 5.99804" fill="none" fill-rule="evenodd"/><path d="M5.38166 0.680459 70.5292 21.6295 69.9171 23.5329 4.76961 2.58382ZM5.07563 1.63214 6.38934 6.25492 0 0 8.83754-1.35852Z" transform="matrix(1 0 0 -1.00033 325 110.617)"/><path d="M332.386 222.716 392.709 241.665 392.11 243.573 331.787 224.624ZM332.087 223.67 333.432 228.286 327 222.073 335.828 220.653Z"/><path d="M96 301.098 220.684 301.098" stroke="#000000" stroke-width="1.99935" stroke-miterlimit="8" fill="none" fill-rule="evenodd"/><path d="M221 268.088 221 330.413" stroke="#000000" stroke-width="1.99935" stroke-miterlimit="8" fill="none" fill-rule="evenodd"/><path d="M0 0 68.0093 0.000104953" stroke="#000000" stroke-width="1.99935" stroke-miterlimit="8" fill="none" fill-rule="evenodd" transform="matrix(-1 0 0 1.00033 265.009 268.088)"/><path d="M0 0 68.0093 0.000104953" stroke="#000000" stroke-width="1.99935" stroke-miterlimit="8" fill="none" fill-rule="evenodd" transform="matrix(-1 0 0 1.00033 264.009 329.108)"/><path d="M264 267.087 264 330.205" stroke="#000000" stroke-width="1.99935" stroke-miterlimit="8" fill="none" fill-rule="evenodd"/><path d="M264 300.098 381.883 300.098" stroke="#000000" stroke-width="1.99935" stroke-miterlimit="8" fill="none" fill-rule="evenodd"/><text font-family="Cambria Math,Cambria Math_MSFontService,sans-serif" font-weight="400" font-size="16" transform="matrix(1 0 0 1.00033 209.825 352)">ğ‘</text><text font-family="Cambria Math,Cambria Math_MSFontService,sans-serif" font-weight="400" font-size="12" transform="matrix(1 0 0 1.00033 216.763 355)">ğ‘‘</text><text font-family="Cambria Math,Cambria Math_MSFontService,sans-serif" font-weight="400" font-size="16" transform="matrix(1 0 0 1.00033 228.852 352)">â‹…</text><text font-family="Cambria Math,Cambria Math_MSFontService,sans-serif" font-weight="400" font-size="16" transform="matrix(1 0 0 1.00033 236.903 352)">ğ‘¥</text><path d="M-2.25-9.02344C-2.5-9.02344-2.70833-9.11068-2.875-9.28516-3.04167-9.45963-3.125-9.67969-3.125-9.94531-3.125-10.2109-3.04167-10.431-2.875-10.6055-2.70833-10.7799-2.5-10.8672-2.25-10.8672-2.00521-10.8672-1.79948-10.7799-1.63281-10.6055-1.46615-10.431-1.38281-10.2109-1.38281-9.94531-1.38281-9.67969-1.46615-9.45963-1.63281-9.28516-1.79948-9.11068-2.00521-9.02344-2.25-9.02344Z" transform="matrix(1 0 0 1.00033 244.334 352)"/><text fill="#000000" fill-opacity="0" font-family="Arial,Arial_MSFontService,sans-serif" font-size="1.84375" x="-3.125" y="-9.25391">áˆ¶</text><path d="M186.847 3.0176C188.368 3.41865 189.536 4.28453 190.351 5.61526 191.166 6.94599 191.573 8.55146 191.573 10.4317 191.573 12.3171 191.167 13.9226 190.355 15.2481 189.542 16.5736 188.373 17.4369 186.847 17.8379L186.659 17.2364C187.863 16.8353 188.757 16.0436 189.343 14.8614 189.929 13.6791 190.222 12.1765 190.222 10.3535 190.222 8.59313 189.93 7.13089 189.347 5.96682 188.764 4.80276 187.86 4.02021 186.636 3.61917ZM179.11 3.0176 179.321 3.61917C178.102 4.02021 177.199 4.80276 176.614 5.96682 176.028 7.13089 175.735 8.59313 175.735 10.3535 175.735 12.1765 176.028 13.6791 176.614 14.8614 177.199 16.0436 178.094 16.8353 179.297 17.2364L179.11 17.8379C177.584 17.4369 176.414 16.5736 175.602 15.2481 174.789 13.9226 174.383 12.3171 174.383 10.4317 174.383 8.55146 174.791 6.94599 175.606 5.61526 176.421 4.28453 177.589 3.41865 179.11 3.0176Z" fill-rule="evenodd" transform="matrix(1 0 0 1.00033 72.9099 336.594)"/><text font-family="Cambria Math,Cambria Math_MSFontService,sans-serif" font-weight="400" font-size="16" transform="matrix(1 0 0 1.00033 252.525 352)">ğ‘¡</text><text font-family="Times New Roman,Times New Roman_MSFontService,sans-serif" font-weight="400" font-size="16" transform="matrix(1 0 0 1.00033 373.175 338)">Viscous element</text><path d="M145 274.923C145 268.386 150.298 263.086 156.833 263.086L310.167 263.086C316.702 263.086 322 268.386 322 274.923L322 322.272C322 328.809 316.702 334.109 310.167 334.109L156.833 334.109C150.298 334.109 145 328.809 145 322.272Z" stroke="#042433" stroke-width="1.99935" stroke-miterlimit="8" stroke-dasharray="7.99739 5.99804" fill="none" fill-rule="evenodd"/><path d="M330.279 315.351 367.174 331.722 366.364 333.55 329.468 317.179ZM329.874 316.265 330.689 321.003 325 314.103 333.932 313.69Z"/><path d="M257 122.04 240 140.046 223 122.04Z" stroke="#000000" stroke-width="1.99935" stroke-miterlimit="8" fill-rule="evenodd"/><path d="M97 222.073 259.467 222.073" stroke="#000000" stroke-width="1.99935" stroke-miterlimit="8" fill="none" fill-rule="evenodd"/><path d="M223 203.066 381.688 203.066" stroke="#000000" stroke-width="1.99935" stroke-miterlimit="8" fill="none" fill-rule="evenodd"/><path d="M146 192.897C146 188.016 149.955 184.06 154.833 184.06L314.166 184.06C319.045 184.06 323 188.016 323 192.897L323 228.241C323 233.121 319.045 237.077 314.166 237.077L154.833 237.077C149.955 237.077 146 233.121 146 228.241Z" stroke="#042433" stroke-width="1.99935" stroke-miterlimit="8" stroke-dasharray="7.99739 5.99804" fill="none" fill-rule="evenodd"/><path d="M258 203.066 241 221.072 224 203.066Z" stroke="#000000" stroke-width="1.99935" stroke-miterlimit="8" fill-rule="evenodd"/></g></svg>